<svg width="800" height="800" viewBox="0 0 24 24" fill="none" xmlns="http://www.w3.org/2000/svg">
    <path fill="#fff" d="M0 0h24v24H0z" />
    <path fill-rule="evenodd" clip-rule="evenodd"
        d="M12 2c-1.876 0-3.451.1-4.75.388-1.31.291-2.399.788-3.236 1.626-.838.837-1.335 1.926-1.626 3.236C2.099 8.55 2 10.124 2 12s.1 3.451.388 4.75c.291 1.31.788 2.399 1.626 3.236.837.838 1.926 1.335 3.236 1.626C8.55 21.901 10.124 22 12 22s3.451-.1 4.75-.388c1.31-.291 2.399-.788 3.236-1.626.838-.837 1.335-1.926 1.626-3.236.289-1.299.388-2.874.388-4.75s-.1-3.451-.388-4.75c-.291-1.31-.788-2.399-1.626-3.236-.837-.838-1.926-1.335-3.236-1.626C15.45 2.099 13.876 2 12 2zm-2 4a1 1 0 0 1 1 1v.5h1V7a1 1 0 1 1 2 0v.536a2.773 2.773 0 0 1 1.63.821c.506.531.745 1.223.745 1.893 0 .611-.199 1.241-.618 1.75.419.509.618 1.139.618 1.75 0 .67-.239 1.362-.745 1.893a2.773 2.773 0 0 1-1.63.821V17a1 1 0 1 1-2 0v-.5h-1v.5a1 1 0 1 1-2 0v-.5H8a1 1 0 1 1 0-2h1v-5H8a1 1 0 0 1 0-2h1V7a1 1 0 0 1 1-1z"
        fill="#323232" />
    <path fill-rule="evenodd" clip-rule="evenodd"
        d="M11 11V9.5h2.5c.377 0 .575.124.682.237.12.125.193.308.193.513a.743.743 0 0 1-.193.514c-.107.112-.305.236-.682.236H11zM13.5 14.5c.377 0 .575-.124.682-.236a.743.743 0 0 0 .193-.514.743.743 0 0 0-.193-.514c-.107-.112-.305-.236-.682-.236H11v1.5h2.5z"
        fill="#323232" />
</svg>